<svg width="20" height="20" viewBox="0 0 20 36" fill="none" xmlns="http://www.w3.org/2000/svg">
<path d="M18.5744 6.23143H12.7795C11.7126 6.23143 10.8478 7.09626 10.8478 8.16306V13.958H18.5744C18.794 13.9531 19.0024 14.0553 19.133 14.2321C19.2636 14.4088 19.3003 14.6379 19.2311 14.8465L17.8017 19.0961C17.67 19.4861 17.3055 19.7498 16.8939 19.7529H10.8478V34.2401C10.8478 34.7734 10.4153 35.2059 9.88202 35.2059H5.05293C4.51953 35.2059 4.08712 34.7734 4.08712 34.2401V19.7529H1.18966C0.656262 19.7529 0.223846 19.3204 0.223846 18.7871V14.9238C0.223846 14.3905 0.656262 13.958 1.18966 13.958H4.08712V8.16306C4.08712 3.89581 7.54648 0.436523 11.8137 0.436523H18.5744C19.1077 0.436523 19.5402 0.868939 19.5402 1.40234V5.26561C19.5402 5.79901 19.1077 6.23143 18.5744 6.23143Z" fill="#181818"/>
</svg>