<svg width="35" height="30" viewBox="0 0 35 30" fill="none" xmlns="http://www.w3.org/2000/svg">
<path d="M34.7691 4.61817C33.8721 5.81486 32.7877 6.85873 31.5578 7.70948C31.5578 8.02208 31.5578 8.33467 31.5578 8.66465C31.5676 14.3414 29.3001 19.7848 25.2636 23.7744C21.2268 27.764 15.7588 29.966 10.0853 29.8868C6.80523 29.8979 3.56719 29.149 0.624828 27.6987C0.466163 27.6293 0.363844 27.4725 0.364443 27.2992V27.1082C0.364443 26.8588 0.566512 26.6568 0.81577 26.6568C4.03996 26.5503 7.14911 25.4325 9.70335 23.4613C6.78502 23.4023 4.15927 21.6735 2.95086 19.0152C2.88984 18.8702 2.90883 18.7035 3.00103 18.5758C3.0932 18.4481 3.24524 18.3778 3.40219 18.3901C4.28914 18.4792 5.18495 18.3967 6.0407 18.147C2.81911 17.4782 0.398421 14.8037 0.0519823 11.5301C0.0396778 11.3731 0.110047 11.2211 0.237689 11.1287C0.365312 11.0366 0.531761 11.0175 0.676904 11.0787C1.54143 11.4602 2.4747 11.6611 3.41955 11.669C0.596664 9.81632 -0.622641 6.29222 0.451231 3.0899C0.562088 2.77873 0.828402 2.54885 1.15232 2.48476C1.47621 2.42065 1.80996 2.53177 2.03086 2.7773C5.84018 6.83153 11.0742 9.24745 16.6293 9.51562C16.4872 8.94783 16.4172 8.3643 16.4211 7.77894C16.4731 4.70957 18.3723 1.97533 21.2295 0.856255C24.0866 -0.262799 27.3364 0.454785 29.4575 2.67309C30.9032 2.39766 32.3009 1.91205 33.6061 1.23165C33.7017 1.17196 33.823 1.17196 33.9186 1.23165C33.9783 1.3273 33.9783 1.44859 33.9186 1.54425C33.2864 2.99197 32.2184 4.20619 30.8636 5.01761C32.05 4.88002 33.2155 4.60015 34.3353 4.18402C34.4295 4.11985 34.5534 4.11985 34.6476 4.18402C34.7266 4.22014 34.7857 4.28923 34.8091 4.37289C34.8325 4.45655 34.8178 4.54628 34.7691 4.61817Z" fill="#181818"/>
</svg>