<svg width="36" height="36" viewBox="0 0 36 36" fill="none" xmlns="http://www.w3.org/2000/svg">
<path fill-rule="evenodd" clip-rule="evenodd" d="M25.8876 0.436523H10.4345C5.10042 0.436523 0.776306 4.76064 0.776306 10.0947V25.5478C0.776306 30.8818 5.10042 35.2059 10.4345 35.2059H25.8876C31.2216 35.2059 35.5457 30.8818 35.5457 25.5478V10.0947C35.5457 4.76064 31.2216 0.436523 25.8876 0.436523ZM32.1654 25.5478C32.1547 29.0104 29.3502 31.815 25.8876 31.8256H10.4345C6.97173 31.815 4.16727 29.0104 4.15667 25.5478V10.0947C4.16727 6.63195 6.97173 3.82749 10.4345 3.81688H25.8876C29.3502 3.82749 32.1547 6.63195 32.1654 10.0947V25.5478ZM27.3363 10.5776C28.4031 10.5776 29.2679 9.71277 29.2679 8.64597C29.2679 7.57917 28.4031 6.71433 27.3363 6.71433C26.2694 6.71433 25.4046 7.57917 25.4046 8.64597C25.4046 9.71277 26.2694 10.5776 27.3363 10.5776ZM18.161 9.12888C13.3604 9.12888 9.46866 13.0206 9.46866 17.8212C9.46866 22.6219 13.3604 26.5136 18.161 26.5136C22.9617 26.5136 26.8534 22.6219 26.8534 17.8212C26.8586 15.5143 25.9443 13.3004 24.3131 11.6691C22.6818 10.0379 20.468 9.12374 18.161 9.12888ZM12.849 17.8212C12.849 20.755 15.2272 23.1332 18.161 23.1332C21.0948 23.1332 23.473 20.755 23.473 17.8212C23.473 14.8875 21.0948 12.5092 18.161 12.5092C15.2272 12.5092 12.849 14.8875 12.849 17.8212Z" fill="#181818"/>
</svg>
