<svg width="36" height="36" viewBox="0 0 36 36" fill="none" xmlns="http://www.w3.org/2000/svg">
<path fill-rule="evenodd" clip-rule="evenodd" d="M4.19499 0.436523H31.2379C33.3716 0.436523 35.1011 2.16617 35.1011 4.29979V31.3427C35.1011 33.4764 33.3716 35.2059 31.2379 35.2059H4.19499C2.06137 35.2059 0.331726 33.4764 0.331726 31.3427V4.29979C0.331726 2.16617 2.06137 0.436523 4.19499 0.436523ZM9.9899 29.411C10.5233 29.411 10.9557 28.9785 10.9557 28.4452V14.9238C10.9557 14.3905 10.5233 13.958 9.9899 13.958H7.09245C6.55904 13.958 6.12663 14.3905 6.12663 14.9238V28.4452C6.12663 28.9785 6.55904 29.411 7.09245 29.411H9.9899ZM8.54117 12.0263C6.94095 12.0263 5.64372 10.7291 5.64372 9.12888C5.64372 7.52865 6.94095 6.23143 8.54117 6.23143C10.1414 6.23143 11.4386 7.52865 11.4386 9.12888C11.4386 10.7291 10.1414 12.0263 8.54117 12.0263ZM28.3404 29.411C28.8737 29.411 29.3062 28.9785 29.3062 28.4452V19.5597C29.369 16.4899 27.0995 13.8701 24.0522 13.4944C21.9216 13.2998 19.8573 14.2948 18.6823 16.0828V14.9238C18.6823 14.3905 18.2498 13.958 17.7164 13.958H14.819C14.2857 13.958 13.8532 14.3905 13.8532 14.9238V28.4452C13.8532 28.9785 14.2857 29.411 14.819 29.411H17.7164C18.2498 29.411 18.6823 28.9785 18.6823 28.4452V21.2016C18.6823 19.6014 19.9795 18.3041 21.5797 18.3041C23.1799 18.3041 24.4772 19.6014 24.4772 21.2016V28.4452C24.4772 28.9785 24.9096 29.411 25.443 29.411H28.3404Z" fill="#181818"/>
</svg>